<svg width="279" height="408" viewBox="0 0 279 408" fill="none" xmlns="http://www.w3.org/2000/svg">
<path d="M174.787 12.2043C162.787 -11.2957 191.787 7.20427 218.787 2.70427C233.787 2.16235 227.787 12.2043 227.787 17.2043C227.787 22.2044 239.287 20.2043 246.287 25.7043C253.287 31.2043 259.287 29.7043 259.287 45.7043C259.287 61.7043 240.787 41.2043 208.287 41.2043C175.787 41.2043 186.787 35.7043 174.787 12.2043Z" fill="#E2C1BA" fill-opacity="0.8"/>
<path d="M125.5 396C109.9 396 94.3333 404 88.5 408H279L278.5 146C274 159 260.5 178 260.5 168C260.5 158 250 151 248.5 133C247 115 242.5 110 233.5 91.0003C224.5 72.0003 228.5 71.5003 213 77.5003C197.5 83.5003 203 86.5003 213 114.5C223 142.5 228.5 174.5 228.5 212C228.5 249.5 217 262.5 213 321.5C209 380.5 189 377.5 167 377.5C145 377.5 145 396 125.5 396Z" fill="#C2B59C"/>
<path d="M227 80.9999C237 77.9999 236.5 92.9999 241.5 108C243.256 114 247 112.5 247 125.5C247 138.5 271.5 164.5 265 169.5C258.5 174.5 258 198.5 247 218.5C236 238.5 248.5 209.5 247 183C245.5 156.5 241.5 173.5 238.5 155C235.5 136.5 229.5 134 229.5 120.5C229.5 107 219.5 108 215 92C210.5 76.0001 217 83.9999 227 80.9999Z" fill="#B4A78D" fill-opacity="0.8"/>
<path d="M231 325C231 295.8 238.667 255.5 242.5 239C258.1 216.133 260.167 193.805 258.5 185.5C257 192 254 207.6 248 218C240.5 231 224 255.5 219.5 281.5C215 307.5 223 306 211 343C199 380 196 367 184 371.5C172 376 170 372.5 156.5 378C143 383.5 151 389.5 129 392.5C111.4 394.9 95.6667 403.5 90 407.5H140C146 402.167 161.3 390.3 174.5 385.5C191 379.5 192.5 387 211 382.5C229.5 378 231 361.5 231 325Z" fill="#D7C8AD" fill-opacity="0.6"/>
<path d="M213.942 122.662C212.608 114.567 216.54 116.993 219.5 116.5C229.5 116.5 232 128 237 156.5C242 185 237 165 237 182C237 199 240 197.5 240 209.5C240 218.525 227.922 249.762 220.797 266.904C220.322 268.24 219.878 269.273 219.5 270C219.909 269.032 220.343 267.997 220.797 266.904C223.047 260.583 226 247.483 226 228V190C226.5 180 228.5 177.5 219.5 142C214.582 122.6 213.844 121.268 213.942 122.662C213.961 122.773 213.98 122.885 214 123C214.68 126.855 214.024 123.819 213.942 122.662Z" fill="#B7AA90" fill-opacity="0.6"/>
<path d="M253.5 308.5C245.5 345.3 251.5 390.167 255.5 408H277V178C275 187 269.6 212.1 264 240.5C257 276 263.5 262.5 253.5 308.5Z" fill="#A59678" fill-opacity="0.8"/>
<path d="M259 370C257.8 392.4 263.5 404.667 266.5 408H277V243C276.333 250.5 275 269.7 275 286.5C275 307.5 266.5 292.5 266.5 326C266.5 359.5 260.5 342 259 370Z" fill="#908368"/>
<path d="M188.652 9.05712C224.89 11.0635 224.274 16.2468 219.437 18.5877C216.505 18.5877 212.4 20.0925 219.437 26.1116C228.232 33.6356 240.986 18.5877 257.697 39.1534C274.409 59.7192 262.095 58.7161 253.739 99.8479C245.384 140.98 237.028 115.899 210.641 124.427C184.254 132.954 185.134 120.414 159.187 124.427C133.24 128.44 135.879 111.887 116.968 124.427C98.0577 136.967 62.4357 124.427 34.7296 124.427C7.0236 124.427 -21.562 118.909 23.7352 99.8479C69.0324 80.7868 56.7186 81.7901 74.7495 58.7161C92.7804 35.6422 97.1782 42.1631 105.974 39.1534C114.769 36.1438 108.159 28.3938 130.5 13.5C150 0.5 143.355 6.54908 188.652 9.05712Z" fill="#ECCCC6"/>
<path d="M160.637 17.6509C172.237 12.8509 177.471 19.6509 178.637 23.6509C180.096 26.651 181.137 25.6509 183.137 28.6509C185.137 31.6509 190.137 44.6509 183.137 49.1509C176.137 53.6509 165.637 52.6509 154.637 51.1509C143.637 49.6509 138.637 45.1509 132.637 40.1509C126.637 35.1509 132.137 23.6509 136.637 23.6509C141.137 23.6509 146.137 23.6509 160.637 17.6509Z" fill="#FFE6E1" fill-opacity="0.5"/>
<path d="M208.296 40.225C214.296 32.725 218.796 40.725 233.296 40.225C247.796 37.7248 253.296 40.225 260.296 49.7251C267.296 59.2252 258.796 56.7251 242.296 63.7251C225.796 70.7251 227.296 69.7251 216.296 71.2251C205.296 72.7251 203.296 68.7251 195.296 56.7251C187.296 44.7251 202.296 47.725 208.296 40.225Z" fill="#F5D9D4"/>
<path d="M152.5 91.5001C164.1 86.3001 176.333 89.3334 181 91.5001C190.5 94.044 197.5 91.5001 213.5 98.5C229.5 105.5 218.5 108 204.5 121.5C190.5 135 192 134.5 171.5 138C151 141.5 146 134 134.5 132.5C123 131 118.5 122.5 109.5 121.5C100.5 120.5 106.5 105 124 103.5C141.5 102 138 98.0001 152.5 91.5001Z" fill="#F0D5CF" fill-opacity="0.6"/>
<path d="M185.316 41.8166C210.916 41.8166 198.316 53.4833 188.816 59.3166C178.049 68.8166 182.316 70.3167 173.316 70.8167C164.316 71.3167 154.816 77.8167 146.316 78.8167C139.516 79.6166 123.816 75.8167 116.816 73.8167C112.983 72.3167 103.916 69.0167 98.316 67.8167C91.316 66.3167 96.816 49.8167 101.816 49.8167C106.816 49.8167 113.316 41.8166 118.816 36.3166C124.316 30.8166 134.816 33.8166 146.316 33.8166C157.816 33.8166 153.316 41.8166 185.316 41.8166Z" fill="#F0D5CF" fill-opacity="0.4"/>
<path d="M25.8653 77.289C45.3653 65.289 38.3653 77.289 56.3653 63.789C73.8654 44.789 85.3652 53.289 100.365 44.789C115.365 36.289 117.365 42.289 134.365 60.789C151.365 79.289 140.865 91.289 140.365 105.789C139.865 120.289 128.365 105.789 94.3652 110.289C60.3652 114.789 66.3652 116.789 51.8652 116.789C37.3652 116.789 38.3653 108.789 15.8653 105.789C-6.6347 102.789 6.3653 89.289 25.8653 77.289Z" fill="#F0DEDA" fill-opacity="0.6"/>
<path d="M193.168 216.672C193.168 243.99 221.862 258.608 236.21 262.502C242.215 267.444 240.213 271.488 236.21 282.721C233.483 290.369 232.739 310.06 232.681 322.957C232.738 324.805 232.747 326.812 232.706 329C232.681 327.261 232.671 325.213 232.681 322.957C232.033 302.031 225.184 301.506 213.688 290.359C201.176 278.228 171.147 242.283 171.647 221.165C172.148 200.048 158.134 203.642 147.124 204.99C136.113 206.338 146.123 194.206 147.124 188.815C148.125 183.423 193.168 182.524 193.168 216.672Z" fill="#C2B59C"/>
<path d="M142.507 206.704C136.507 206.704 142.673 199.37 146.507 195.704C152.507 190.704 164.506 198.204 174.506 199.204C184.506 200.204 184.506 222.204 189.006 244.204C193.506 266.204 236.006 276.703 236.006 285.703C236.006 294.703 233.006 337.703 230.006 319.203C227.006 300.703 214.006 295.203 199.506 279.703C185.006 264.203 173.506 240.704 172.006 229.704C170.506 218.704 171.506 216.704 167.506 208.204C163.506 199.704 150.007 206.704 142.507 206.704Z" fill="#AB9C7F"/>
<path d="M234.5 300C235 305.5 235.5 315 231.5 323.5C229.051 331 231.5 326.5 229 332C226.5 337.5 222.5 306.5 216.5 299C210.5 291.5 199 280 196 278.5C193 277 182 260 187.5 261C193 262 204.5 279.5 216.5 284C228.5 288.5 234 294.5 234.5 300Z" fill="#9E927A"/>
<path d="M138.509 165.313C152.009 161.813 158.009 161.313 166.509 178.313C170.009 169.313 186.009 172.313 196.509 178.313C207.009 184.313 207.009 198.813 209.509 211.313C212.009 223.813 175.009 202.813 154.509 211.313C134.009 219.813 115.509 213.813 90.509 214.813C65.509 215.813 65.509 205.813 38.509 207.813C11.509 209.813 6.50899 208.313 6.00899 193.813C5.50899 179.313 26.009 188.313 33.509 178.313C41.009 168.313 53.509 178.313 67.509 167.813C81.509 157.313 110.009 172.813 119.509 165.313C127.109 159.313 135.342 162.813 138.509 165.313Z" fill="#ECCCC6"/>
<path d="M51.9611 165.856C65.9611 162.856 60.4611 168.356 77.4611 172.856C86.4611 172.856 87.4611 182.856 78.9611 190.856C70.4611 198.856 65.9611 190.856 49.4611 191.856C32.9611 192.856 34.9611 183.856 22.4611 184.856C9.9611 185.856 20.9611 176.356 34.9611 168.856C48.9611 161.356 37.9611 168.856 51.9611 165.856Z" fill="#EFD7D2" fill-opacity="0.7"/>
<path d="M89.6415 203C114.142 203 113.642 199 130.642 199C137.475 199 152.941 201.4 160.141 211C169.141 223 162.141 216.5 144.141 221C126.141 225.5 134.141 221 114.141 224C94.1415 227 83.6415 218 60.6415 211C37.6415 204 65.1415 203 89.6415 203Z" fill="#F3D7D3" fill-opacity="0.6"/>
<path d="M124.989 157.103C147.989 154.103 132.489 157.103 149.489 167.603C155.973 172.603 161.489 175.603 159.489 183.603C157.489 191.603 145.489 175.603 120.989 175.603C96.4891 175.603 101.989 160.103 124.989 157.103Z" fill="#EFD7D2" fill-opacity="0.6"/>
<path d="M124.832 87.0082C119.332 75.0082 142.332 78.0082 157.332 77.0082C170.332 76.7015 187.832 85.0082 190.332 96.5082C192.818 107.943 170.091 105.042 146.73 102.059L146.332 102.008C122.832 99.0082 130.332 99.0082 124.832 87.0082Z" fill="#FCD2CA" fill-opacity="0.8"/>
<path d="M92.4653 187.828C96.9653 176.828 103.965 182.328 121.465 177.328C131.965 175.217 144.465 175.328 158.465 179.828C172.465 184.328 161.965 195.828 148.465 204.828C134.965 213.828 129.965 208.828 106.965 204.828C83.9653 200.828 87.9653 198.828 92.4653 187.828Z" fill="#FCD2CA" fill-opacity="0.8"/>
</svg>
