<svg width="284" height="420" viewBox="0 0 284 420" fill="none" xmlns="http://www.w3.org/2000/svg">
<path d="M125.5 390.552C109.9 390.552 94.3333 398.552 88.5 402.552H183.5H278.5V140.552C274 153.552 260.5 172.552 260.5 162.552C260.5 152.552 250 145.552 248.5 127.552C247 109.552 242.5 104.552 233.5 85.5523C224.5 66.5523 228.5 66.0523 213 72.0523C197.5 78.0523 203 81.0523 213 109.052C223 137.052 228.5 169.052 228.5 206.552C228.5 244.052 217 257.052 213 316.052C209 375.052 189 372.052 167 372.052C145 372.052 145 390.552 125.5 390.552Z" fill="#C2B59C"/>
<path d="M227 75.5521C237 72.5521 236.5 87.5521 241.5 102.552C243.256 108.552 247 107.052 247 120.052C247 133.052 271.5 159.052 265 164.052C258.5 169.052 258 193.052 247 213.052C236 233.052 248.5 204.052 247 177.552C245.5 151.052 241.5 168.052 238.5 149.552C235.5 131.052 229.5 128.552 229.5 115.052C229.5 101.552 219.5 102.552 215 86.5522C210.5 70.5523 217 78.5521 227 75.5521Z" fill="#B4A78D" fill-opacity="0.8"/>
<path d="M231 319.552C231 290.352 238.667 250.052 242.5 233.552C258.1 210.685 260.167 188.358 258.5 180.052C257 186.552 254 202.152 248 212.552C240.5 225.552 224 250.052 219.5 276.052C215 302.052 223 300.552 211 337.552C199 374.552 196 361.552 184 366.052C172 370.552 170 367.052 156.5 372.552C143 378.052 151 384.052 129 387.052C111.4 389.452 95.6667 398.052 90 402.052H140C146 396.719 161.3 384.852 174.5 380.052C191 374.052 192.5 381.552 211 377.052C229.5 372.552 231 356.052 231 319.552Z" fill="#D7C8AD" fill-opacity="0.6"/>
<path d="M213.942 117.214C212.608 109.119 216.54 111.546 219.5 111.052C229.5 111.052 232 122.552 237 151.052C242 179.552 237 159.552 237 176.552C237 193.552 240 192.052 240 204.052C240 213.077 227.922 244.315 220.797 261.457C220.322 262.792 219.878 263.825 219.5 264.552C219.909 263.584 220.343 262.549 220.797 261.457C223.047 255.135 226 242.036 226 222.552V184.552C226.5 174.552 228.5 172.052 219.5 136.552C214.582 117.152 213.844 115.82 213.942 117.214C213.961 117.325 213.98 117.438 214 117.552C214.68 121.407 214.024 118.372 213.942 117.214Z" fill="#B7AA90" fill-opacity="0.6"/>
<path d="M255.023 303.5C246.861 340.3 252.983 385.167 257.064 403H279L278.5 172.5C276.459 181.5 271.45 207.1 265.736 235.5C258.594 271 265.226 257.5 255.023 303.5Z" fill="#A59678" fill-opacity="0.8"/>
<path d="M188.652 3.60936C224.89 5.61579 224.274 10.7991 219.437 13.1399C216.505 13.1399 212.4 14.6447 219.437 20.6639C228.232 28.1879 240.986 13.1399 257.697 33.7057C274.409 54.2715 262.095 53.2684 253.739 94.4002C245.384 135.532 237.028 110.452 210.641 118.979C184.254 127.506 185.134 114.966 159.187 118.979C133.24 122.992 135.879 106.439 116.968 118.979C98.0577 131.519 62.4357 118.979 34.7296 118.979C7.0236 118.979 -21.562 113.461 23.7352 94.4002C69.0324 75.3391 56.7186 76.3423 74.7495 53.2684C92.7804 30.1944 97.1782 36.7153 105.974 33.7057C114.769 30.696 108.159 22.946 130.5 8.05223C150 -4.94775 143.355 1.10133 188.652 3.60936Z" fill="#708C80"/>
<path d="M152.5 86.0523C164.1 80.8523 176.333 83.8857 181 86.0523C190.5 88.5962 197.5 86.0523 213.5 93.0522C229.5 100.052 218.5 102.552 204.5 116.052C190.5 129.552 192 129.052 171.5 132.552C151 136.052 146 128.552 134.5 127.052C123 125.552 118.5 117.052 109.5 116.052C100.5 115.052 106.5 99.5522 124 98.0522C141.5 96.5522 138 92.5523 152.5 86.0523Z" fill="#90B2A4" fill-opacity="0.6"/>
<path d="M185.316 36.3689C210.916 36.3689 198.316 48.0355 188.816 53.8689C178.049 63.3689 182.316 64.8689 173.316 65.3689C164.316 65.8689 154.816 72.3689 146.316 73.3689C139.516 74.1689 123.816 70.3689 116.816 68.3689C112.983 66.8689 103.916 63.5689 98.316 62.3689C91.316 60.8689 96.816 44.3689 101.816 44.3689C106.816 44.3689 113.316 36.3689 118.816 30.8689C124.316 25.3689 134.816 28.3689 146.316 28.3689C157.816 28.3689 153.316 36.3689 185.316 36.3689Z" fill="#80A596"/>
<path d="M25.8653 71.8413C45.3653 59.8413 38.3653 71.8413 56.3653 58.3413C73.8654 39.3412 85.3652 47.8413 100.365 39.3413C115.365 30.8413 117.365 36.8413 134.365 55.3413C151.365 73.8413 140.865 85.8413 140.365 100.341C139.865 114.841 128.365 100.341 94.3652 104.841C60.3652 109.341 66.3652 111.341 51.8652 111.341C37.3652 111.341 38.3653 103.341 15.8653 100.341C-6.6347 97.3413 6.3653 83.8413 25.8653 71.8413Z" fill="#90B2A4" fill-opacity="0.6"/>
<path d="M193.168 211.224C193.168 238.542 221.862 253.16 236.21 257.054C242.215 261.996 240.213 266.04 236.21 277.273C233.483 284.921 232.739 304.612 232.681 317.509C232.738 319.357 232.747 321.364 232.706 323.552C232.681 321.813 232.671 319.765 232.681 317.509C232.033 296.584 225.184 296.058 213.688 284.911C201.176 272.78 171.147 236.835 171.647 215.717C172.148 194.6 158.134 198.194 147.124 199.542C136.113 200.89 146.123 188.759 147.124 183.367C148.125 177.975 193.168 177.077 193.168 211.224Z" fill="#C2B59C"/>
<path d="M142.507 201.256C136.507 201.256 142.673 193.922 146.507 190.256C152.507 185.256 164.506 192.756 174.506 193.756C184.506 194.756 184.506 216.756 189.006 238.756C193.506 260.756 236.006 271.256 236.006 280.256C236.006 289.256 233.006 332.256 230.006 313.756C227.006 295.256 214.006 289.756 199.506 274.256C185.006 258.756 173.506 235.256 172.006 224.256C170.506 213.256 171.506 211.256 167.506 202.756C163.506 194.256 150.007 201.256 142.507 201.256Z" fill="#AB9C7F"/>
<path d="M234.5 294.552C235 300.052 235.5 309.552 231.5 318.052C229.051 325.552 231.5 321.052 229 326.552C226.5 332.052 222.5 301.052 216.5 293.552C210.5 286.052 199 274.552 196 273.052C193 271.552 182 254.552 187.5 255.552C193 256.552 204.5 274.052 216.5 278.552C228.5 283.052 234 289.052 234.5 294.552Z" fill="#9E927A"/>
<path d="M138.509 159.865C152.009 156.365 158.009 155.865 166.509 172.865C170.009 163.865 186.009 166.865 196.509 172.865C207.009 178.865 207.009 193.365 209.509 205.865C212.009 218.365 175.009 197.365 154.509 205.865C134.009 214.365 115.509 208.365 90.509 209.365C65.509 210.365 65.509 200.365 38.509 202.365C11.509 204.365 6.50899 202.865 6.00899 188.365C5.50899 173.865 26.009 182.865 33.509 172.865C41.009 162.865 53.509 172.865 67.509 162.365C81.509 151.865 110.009 167.365 119.509 159.865C127.109 153.865 135.342 157.365 138.509 159.865Z" fill="#708C80"/>
<path d="M51.9611 160.408C65.9611 157.408 60.4611 162.908 77.4611 167.408C86.4611 167.408 87.4611 177.408 78.9611 185.408C70.4611 193.408 65.9611 185.408 49.4611 186.408C32.9611 187.408 34.9611 178.408 22.4611 179.408C9.9611 180.408 20.9611 170.908 34.9611 163.408C48.9611 155.908 37.9611 163.408 51.9611 160.408Z" fill="#90B2A4" fill-opacity="0.6"/>
<path d="M89.6415 197.552C114.142 197.552 113.642 193.552 130.642 193.552C137.475 193.552 152.941 195.952 160.141 205.552C169.141 217.552 162.141 211.052 144.141 215.552C126.141 220.052 134.141 215.552 114.141 218.552C94.1415 221.552 83.6415 212.552 60.6415 205.552C37.6415 198.552 65.1415 197.552 89.6415 197.552Z" fill="#90B2A4" fill-opacity="0.6"/>
<path d="M230.989 14.1026C253.989 11.1026 238.489 14.1026 255.489 24.6026C261.973 29.6027 267.489 32.6025 265.489 40.6025C263.489 48.6025 251.489 32.6025 226.989 32.6025C202.489 32.6025 207.989 17.1026 230.989 14.1026Z" fill="#90B2A4" fill-opacity="0.6"/>
<path d="M92.4653 182.38C96.9653 171.38 103.965 176.88 121.465 171.88C131.965 169.769 144.465 169.88 158.465 174.38C172.465 178.88 161.965 190.38 148.465 199.38C134.965 208.38 129.965 203.38 106.965 199.38C83.9653 195.38 87.9653 193.38 92.4653 182.38Z" fill="#80A596" fill-opacity="0.8"/>
<path d="M140 402.5C149.2 391.7 171.167 382 181 378.5C209.4 374.9 226.167 353 231 342.5C232.5 359 214.5 405.5 192.5 408C174.9 410 140.833 415.167 126 417.5C126.833 417 130.8 413.3 140 402.5Z" fill="#BDAF93"/>
<path d="M284 411.5C263 416 260 400.667 258 392L278.5 352.5C278.5 360.1 281.333 393 284 411.5Z" fill="#AB9C7F"/>
<path d="M269 410.5C258.2 404.9 251.5 370.5 249.5 354L231 351.5C231.4 371.5 208.833 396.5 197.5 406.5C198.5 406.667 204.3 408.9 219.5 416.5C234.7 424.1 258.833 415.667 269 410.5Z" fill="#C2B59C"/>
</svg>
