<svg width="107" height="113" viewBox="0 0 107 113" fill="none" xmlns="http://www.w3.org/2000/svg">
<path d="M53.259 112.543V60.2478H55.187L56.8739 112.543H53.259Z" fill="#BAAD91"/>
<path d="M43.8604 112.543L45.5473 56.3918H53.741V112.543H43.8604Z" fill="#CEC1A6"/>
<path d="M19.5947 3.9691L86.5947 2.46009C96.6919 2.23267 105 10.3557 105 20.4555V41.2382C105 51.338 96.6919 59.461 86.5947 59.2336L19.5947 57.7246C9.81398 57.5043 2 49.5124 2 39.7292V21.9645C2 12.1813 9.81398 4.18938 19.5947 3.9691Z" fill="#CEC1A6" stroke="#908368" stroke-width="4"/>
<path d="M17.9775 14H4V14.964L17.9775 14Z" fill="#908368"/>
<path d="M9.54279 19.0608H4V20.0248L9.54279 19.0608Z" fill="#908368"/>
<path d="M8.09685 23.6396H4V24.8446L8.09685 23.6396Z" fill="#908368"/>
<path d="M89.0001 39H102.978V39.964L89.0001 39Z" fill="#908368"/>
<path d="M97.4347 44.0608H102.978V45.0248L97.4347 44.0608Z" fill="#908368"/>
<path d="M98.8807 48.6396H102.978V49.8446L98.8807 48.6396Z" fill="#908368"/>
</svg>
